<svg xmlns="http://www.w3.org/2000/svg" width="28.36cm" height="5.42cm" viewBox="0 0 803.87 153.75"><defs><style>.a{fill:#505050;}.b{fill:#fff;}.c{fill:#255897;}</style></defs><title>IMD_logo_01</title><rect class="a" x="420.12" width="162.04" height="30.01"/><path class="a" d="M453.76,93.76h-8L430.9,54.59h-.19l.75,39.17h-9V47.06h14.39l12.71,34.69h.24l12.46-34.69H477V93.76h-9l.75-39.36h-.31Z"/><path class="a" d="M493.56,66.36h21.86v7.35H493.56V86.1h23.23v7.66h-32.2V47.06h32v7.66h-23Z"/><path class="a" d="M542.45,93.76h-9v-39h-13.7V47.06h36.37v7.66h-13.7Z"/><path class="a" d="M569,78.32V93.76h-9V47.06h23.86c10.21.25,14.14,3.42,14.14,14,0,6.91-.38,12-8.28,13.14v.25c6.35.56,7.91,4,7.91,10.59v8.72h-9V85c0-3.92-1.62-6.66-5.92-6.73Zm11.83-7.66c6.61,0,8.23-1.31,8.23-8.16,0-6.6-1.18-7.79-7.6-7.79H569V70.66Z"/><path class="a" d="M643.29,63.75V76.33c0,14.95-5.79,17.81-19.93,17.81-14.45,0-19.74-2.49-19.74-17.81V63.75c0-14.52,4.92-17.07,19.74-17.07C636.82,46.68,643.29,48.74,643.29,63.75Zm-30.71,0V76.33c0,9.28,1.81,10.15,10.77,10.15,8.16,0,11-1.12,11-10.15V63.75c.19-8.78-3-9.41-11-9.41C613.71,54.34,612.78,56.33,612.59,63.75Zm17.75-25.16-12.08,5.36-1.68-3.24,11-7.23Z"/><path class="a" d="M649.21,47.06h20.67c12.52,0,16.63,3,16.63,16.07s-4.42,15.51-16.63,15.51h-11.7V93.76h-9ZM669.89,71c6.42-.13,7.66-1.31,7.66-7.85s-.94-8.47-7.66-8.41h-11.7V71Z"/><path class="a" d="M730.56,63.75V76.33c0,14.95-5.79,17.81-19.93,17.81-14.45,0-19.74-2.49-19.74-17.81V63.75c0-14.52,4.92-17.07,19.74-17.07C724.08,46.68,730.56,48.74,730.56,63.75Zm-30.7,0V76.33c0,9.28,1.8,10.15,10.77,10.15,8.16,0,11-1.12,11-10.15V63.75c.19-8.78-3-9.41-11-9.41C701,54.34,700,56.33,699.85,63.75Z"/><path class="a" d="M746.07,86.1h21.8v7.66H737.1V47.06h9Z"/><path class="a" d="M780.64,66.36H802.5v7.35H780.64V86.1h23.23v7.66h-32.2V47.06h32v7.66h-23Z"/><path class="a" d="M422.37,106.17H445.1c5.67,0,16,.75,16,18v11.15c0,4.61-.74,17.56-14.76,17.56h-24Zm22.73,42c9.34,0,10.59-5.48,10.71-13.82V122.12c0-2.62-.93-11.28-9.84-11.28H427.66v37.37Z"/><path class="a" d="M473.88,152.89h-5.29V106.17h5.29Z"/><path class="a" d="M519.59,129.53v10.15c0,11-4.92,13.58-15.51,13.58H499c-12.46,0-17.94-2.3-17.94-16.75V122.06c0-12.64,5.73-16.26,13.7-16.26H507c7,0,12.46,2.87,12.46,10.4v3.61h-5.29v-2.68c0-5.35-2.12-6.67-9.72-6.67h-6.54c-10.09,0-11.58,2-11.58,12.21v15c0,8.91,3,10.9,11.7,10.9h5c9.28,0,11.27-1.12,11.27-8.59V134.2H499.41v-4.67Z"/><path class="a" d="M531.43,152.89h-5.3V106.17h5.3Z"/><path class="a" d="M556.53,152.89h-5.3v-42H536.1v-4.67h35.56v4.67H556.53Z"/><path class="a" d="M578,143l-3.62,9.9H568.8l17-46.71h7.48l17.44,46.71h-5.48l-3.67-9.9Zm11.71-32.45-10.28,28.09h20.68Z"/><path class="a" d="M621.06,148.21h23.79v4.67H615.77V106.17h5.29Z"/><path class="b" d="M444.62,6.42V21.63h-2V6.42Z"/><path class="b" d="M450.32,21.63V6.42h2.14l4.88,7.7a42.94,42.94,0,0,1,2.73,4.95l0,0c-.18-2-.22-3.88-.22-6.26V6.42h1.85V21.63h-2l-4.84-7.72a49.15,49.15,0,0,1-2.84-5.08l-.07,0c.11,1.92.16,3.75.16,6.28v6.5Z"/><path class="b" d="M467.17,19.24a6.94,6.94,0,0,0,3.52,1c2,0,3.18-1.06,3.18-2.6s-.81-2.23-2.87-3c-2.48-.88-4-2.17-4-4.31,0-2.37,2-4.13,4.92-4.13a6.92,6.92,0,0,1,3.37.74l-.54,1.6a6.1,6.1,0,0,0-2.89-.72C469.76,7.79,469,9,469,10.07c0,1.42.93,2.12,3,2.94,2.57,1,3.88,2.24,3.88,4.47s-1.74,4.38-5.33,4.38a7.85,7.85,0,0,1-3.88-1Z"/><path class="b" d="M483.72,8.09h-4.63V6.42h11.27V8.09h-4.65V21.63h-2Z"/><path class="b" d="M496.29,6.42V21.63h-2V6.42Z"/><path class="b" d="M504.87,8.09h-4.63V6.42h11.27V8.09h-4.65V21.63h-2Z"/><path class="b" d="M517.44,6.42v9c0,3.41,1.51,4.86,3.54,4.86,2.26,0,3.7-1.49,3.7-4.86v-9h2v8.87c0,4.67-2.46,6.59-5.76,6.59-3.12,0-5.46-1.78-5.46-6.5v-9Z"/><path class="b" d="M535.24,8.09h-4.63V6.42h11.27V8.09h-4.65V21.63h-2Z"/><path class="b" d="M558.23,13.87c0,5.24-3.18,8-7.07,8s-6.84-3.12-6.84-7.72c0-4.83,3-8,7.07-8S558.23,9.35,558.23,13.87Zm-11.81.25c0,3.25,1.76,6.16,4.85,6.16s4.88-2.87,4.88-6.32c0-3-1.58-6.19-4.86-6.19S546.42,10.77,546.42,14.12Z"/><path class="c" d="M87.14,153.75H50.42V.6h64.73l29.2,96.18h1.43L173.55.6h66.37V153.75h-37l.25-117.41h-1.44L162.94,153.75H127.61L88.4,36.34H87.18Z"/><rect class="c" y="0.6" width="36.72" height="153.15"/><path class="c" d="M370.69,8.93v4.7h-8.27V36.79h23.16V60H362.42V36.79H339.27V68.23H307.83V79.87H296.19V68.23h11.64V36.79h31.43V13.63h23.16V5.35h.64C354.4,2.16,343.73.7,330.9.7H253.41V153.64h83c42.62,0,56.07-19.78,56.07-61.58V60C392.49,33.81,385.56,17.64,370.69,8.93Zm-43-7.63h11.64V12.94H327.69Z"/></svg>