<?xml version="1.0" encoding="UTF-8" standalone="no"?>
<svg
   id="Camada_1"
   data-name="Camada 1"
   viewBox="0 0 1571.97 381.32999"
   version="1.1"
   width="1571.97"
   height="381.32999"
   xmlns:xlink="http://www.w3.org/1999/xlink"
   xmlns="http://www.w3.org/2000/svg"
   xmlns:svg="http://www.w3.org/2000/svg">
  <defs
     id="defs466">
    <style
       id="style442">.cls-1{fill:#255897;}.cls-2{fill:url(#linear-gradient);}.cls-3{fill:url(#linear-gradient-2);}.cls-4{fill:#034ea2;}.cls-5{fill:url(#linear-gradient-3);}.cls-6{fill:url(#linear-gradient-4);}.cls-7{fill:url(#linear-gradient-5);}.cls-8{fill:url(#linear-gradient-6);}.cls-9{fill:url(#linear-gradient-7);}.cls-10{fill:url(#linear-gradient-8);}</style>
    <linearGradient
       id="linear-gradient"
       x1="326.31"
       y1="679.67999"
       x2="326.31"
       y2="408.39001"
       gradientUnits="userSpaceOnUse">
      <stop
         offset="0"
         stop-color="#00a1e4"
         id="stop444" />
      <stop
         offset="0.07"
         stop-color="#018cd4"
         id="stop446" />
      <stop
         offset="0.16"
         stop-color="#0276c1"
         id="stop448" />
      <stop
         offset="0.27"
         stop-color="#0264b3"
         id="stop450" />
      <stop
         offset="0.41"
         stop-color="#0357a9"
         id="stop452" />
      <stop
         offset="0.58"
         stop-color="#0350a4"
         id="stop454" />
      <stop
         offset="1"
         stop-color="#034ea2"
         id="stop456" />
    </linearGradient>
    <linearGradient
       id="linear-gradient-2"
       x1="200.62"
       y1="675"
       x2="200.62"
       y2="449.98999"
       xlink:href="#linear-gradient" />
    <linearGradient
       id="linear-gradient-3"
       x1="1541.21"
       y1="632.57001"
       x2="1541.21"
       y2="306.23001"
       xlink:href="#linear-gradient"
       gradientTransform="translate(-174,-349.34)" />
    <linearGradient
       id="linear-gradient-4"
       x1="1662.9"
       y1="628.89001"
       x2="1662.9"
       y2="374.91"
       xlink:href="#linear-gradient"
       gradientTransform="translate(-174,-349.34)" />
    <linearGradient
       id="linear-gradient-5"
       x1="620.32001"
       y1="686.85999"
       x2="620.32001"
       y2="380.85999"
       xlink:href="#linear-gradient"
       gradientTransform="translate(-174,-349.34)" />
    <linearGradient
       id="linear-gradient-6"
       x1="845.41998"
       y1="676.96002"
       x2="845.41998"
       y2="432.56"
       xlink:href="#linear-gradient"
       gradientTransform="translate(-174,-349.34)" />
    <linearGradient
       id="linear-gradient-7"
       x1="1387.09"
       y1="628.88"
       x2="1387.09"
       y2="374.98999"
       xlink:href="#linear-gradient"
       gradientTransform="translate(-174,-349.34)" />
    <linearGradient
       id="linear-gradient-8"
       x1="1081.4"
       y1="688.51001"
       x2="1081.4"
       y2="365.89001"
       xlink:href="#linear-gradient"
       gradientTransform="translate(-174,-349.34)" />
    <linearGradient
       xlink:href="#linear-gradient"
       id="linearGradient724"
       gradientUnits="userSpaceOnUse"
       x1="326.31"
       y1="679.67999"
       x2="326.31"
       y2="408.39001"
       gradientTransform="translate(-174,-349.34)" />
  </defs>
  <path
     class="cls-1"
     d="m 1019.42,306.99 h 32 c 23.77,0 40,14.66 40,36.65 0,21.99 -16.23,36.65 -40,36.65 h -32 z m 31.41,61.78 c 16.34,0 26.92,-10 26.92,-25.13 0,-15.13 -10.58,-25.14 -26.92,-25.14 H 1033 v 50.27 z"
     id="path468" />
  <path
     class="cls-1"
     d="m 1126.55,306.99 h 13.61 v 73.3 h -13.61 z"
     id="path470" />
  <path
     class="cls-1"
     d="m 1230.64,342.8 h 12.88 v 29.21 c -7.65,6.18 -18.33,9.32 -28.69,9.32 -22.73,0 -39.48,-15.81 -39.48,-37.69 0,-21.88 16.75,-37.7 39.68,-37.7 12.26,0 22.52,4.08 29.43,11.94 l -8.59,8.37 a 27.19,27.19 0 0 0 -20.21,-8.37 c -15.6,0 -26.6,10.57 -26.6,25.76 0,14.87 11,25.76 26.5,25.76 a 29.67,29.67 0 0 0 15.08,-3.77 z"
     id="path472" />
  <path
     class="cls-1"
     d="m 1282.06,306.99 h 13.61 v 73.3 h -13.61 z"
     id="path474" />
  <path
     class="cls-1"
     d="m 1351,318.5 h -24.29 v -11.51 h 62.2 v 11.51 h -24.3 v 61.79 H 1351 Z"
     id="path476" />
  <path
     class="cls-1"
     d="M 1463.64,363.32 H 1427 l -7.23,17 h -14 l 33,-73.3 h 13.4 l 33.09,73.3 H 1471 Z m -4.5,-10.68 -13.83,-32 -13.71,32 z"
     id="path478" />
  <path
     class="cls-1"
     d="m 1515.17,306.99 h 13.61 v 61.78 h 38.32 v 11.52 h -51.93 z"
     id="path480" />
  <path
     class="cls-2"
     d="m 281.67,160.18 c -4.45,-14.2 -13.78,-25.83 -27.73,-34.57 v 0 c -13.4,-8.62 -31.38,-13 -53.42,-13 H 53.24 V 94.87 H 17.75 v 17.79 0 17.75 h 35.49 v 35.45 h 62 v 137 h 53 V 170.16 H 179 c 25,0 35.05,2.64 39.14,4.86 11.29,6 16.78,18.7 16.78,38.79 v 89.09 h 53 v -95.42 c 0,-18.18 -2.1,-34.1 -6.25,-47.3 z"
     id="path482"
     style="fill:url(#linearGradient724)" />
  <polygon
     class="cls-3"
     points="227.24,515.2 191.75,515.2 191.75,479.71 174,479.71 174,652.24 226.97,652.24 "
     id="polygon484"
     style="fill:url(#linear-gradient-2)"
     transform="translate(-174,-349.34)" />
  <rect
     class="cls-4"
     x="0"
     y="77.130005"
     width="17.75"
     height="17.75"
     id="rect486" />
  <rect
     class="cls-4"
     x="803.28998"
     y="39.219997"
     width="35.490002"
     height="35.490002"
     id="rect488" />
  <rect
     class="cls-4"
     x="785.53998"
     y="74.709991"
     width="17.75"
     height="17.75"
     id="rect490" />
  <path
     class="cls-5"
     d="m 1389.24,205.95 a 37.7,37.7 0 0 1 -10.87,-3.91 c -3,-1.57 -5.15,-4.27 -6.66,-8.27 -1.78,-4.7 -2.68,-11.11 -2.68,-19.05 V 46.17 A 46.51,46.51 0 0 0 1324.17,0 h -0.62 v 174.72 c 0,27 6.39,46.54 19,58.17 12.61,11.63 32.89,17.34 62,17.34 h 6.36 v -43.28 h -6.36 a 92.7,92.7 0 0 1 -15.31,-1 z"
     id="path492"
     style="fill:url(#linear-gradient-3)" />
  <path
     class="cls-6"
     d="m 1541.13,197.23 -4.39,3.41 c -8.52,6.6 -19.82,9.95 -33.59,9.95 -15.31,0 -27.31,-4.83 -36.7,-14.76 a 49.42,49.42 0 0 1 -7.76,-10.8 l -0.55,-1 h 27.17 c 71.13,0 86.06,-36.51 86.06,-67.14 0,-25 -11.79,-55.35 -68,-57.66 -29.92,-1 -54.06,8.1 -71.54,27.16 -17.29,18.83 -26.06,43.67 -26.06,73.82 0,27.37 9,50.07 26.64,67.49 17.64,17.42 41.44,26.21 70.71,26.21 24.2,0 45.51,-7.34 63.32,-21.8 l 5.53,-4.48 z m -23.35,-60.08 c -3.53,2.79 -11.59,6.1 -29.92,6.1 h -34.34 l 0.18,-0.85 a 57.55,57.55 0 0 1 12,-25.55 c 8.64,-10.66 20.3,-15.84 35.64,-15.84 7.4,0 13.43,1.53 17.92,4.56 3.8,2.56 5.57,6.26 5.57,11.65 -0.02,9.54 -2.39,16.25 -7.05,19.93 z"
     id="path494"
     style="fill:url(#linear-gradient-4)" />
  <path
     class="cls-7"
     d="m 540.69,71.93 -75.89,75.88 -0.4,-1 c -8.45,-21.75 -30,-33.49 -64,-34.89 -30,-1 -54.08,8.13 -71.54,27.16 -17.29,18.83 -26.06,43.67 -26.06,73.82 0,27.37 9,50.08 26.64,67.49 17.64,17.41 41.45,26.21 70.71,26.21 24.2,0 45.51,-7.34 63.33,-21.8 l 5.52,-4.48 -30.87,-30.36 -4.39,3.41 c -8.52,6.6 -19.82,9.95 -33.59,9.95 -15.31,0 -27.31,-4.83 -36.69,-14.76 a 49.37,49.37 0 0 1 -7.77,-10.8 l -0.55,-1 h 27.18 c 71.13,0 86.06,-36.51 86.06,-67.14 a 71.49,71.49 0 0 0 -0.69,-10 l -0.11,-0.81 h 27.63 v 68.62 c 0,26.67 7.53,46.21 22.4,58.1 14.43,11.56 36.59,17.41 65.85,17.41 h 6.35 v -43.28 h -6.35 a 113.12,113.12 0 0 1 -16.7,-1 56.49,56.49 0 0 1 -13.54,-4.1 17.75,17.75 0 0 1 -9,-8.85 c -2.33,-4.64 -3.51,-10.79 -3.51,-18.26 v -68.68 h 49.13 v -43.28 h -49.15 z m -125.9,117.93 v 0 c -3.53,2.79 -11.58,6.1 -29.92,6.1 h -34.33 l 0.17,-0.85 a 57.46,57.46 0 0 1 12,-25.55 c 8.63,-10.66 20.29,-15.84 35.64,-15.84 7.4,0 13.43,1.53 17.92,4.56 3.8,2.56 5.57,6.26 5.57,11.65 -0.01,9.54 -2.38,16.25 -7.05,19.93 z"
     id="path496"
     style="fill:url(#linear-gradient-5)" />
  <path
     class="cls-8"
     d="m 685.37,115.49 c -9.55,0 -17.27,0.25 -22.94,0.76 a 83.31,83.31 0 0 0 -20.75,5.09 54.65,54.65 0 0 0 -20.91,13.53 c -11.75,12 -17.46,32.42 -17.46,62.32 V 302.9 h 44.74 V 197.19 c 0,-20.88 3.37,-28.27 5.37,-30.8 a 17.87,17.87 0 0 1 7,-5.16 28.76,28.76 0 0 1 7.66,-2.11 c 2.55,-0.23 6.26,-0.35 10.72,-0.35 h 25.31 l 35.4,-43.28 z"
     id="path498"
     style="fill:url(#linear-gradient-6)" />
  <path
     class="cls-9"
     d="m 1301.21,118.6 a 96.42,96.42 0 0 0 -50.81,-51.79 92.5,92.5 0 0 0 -37.31,-7.63 c -27.15,0 -50.11,9.59 -68.24,28.48 -18.11,18.39 -27.29,41.56 -27.29,68.87 a 100,100 0 0 0 7.2,37.88 96.25,96.25 0 0 0 20.08,31 95.52,95.52 0 0 0 136.5,0 96.31,96.31 0 0 0 20.08,-31 100.09,100.09 0 0 0 7.19,-37.87 97.89,97.89 0 0 0 -7.4,-37.94 z m -88.12,92 c -15.28,0 -27.15,-4.81 -36.27,-14.71 -9.28,-10 -13.79,-22.89 -13.79,-39.35 0,-16.46 4.51,-29.34 13.79,-39.36 9.28,-10.02 21,-14.71 36.27,-14.71 15.49,0 27.4,4.86 36.41,14.84 9.18,10.16 13.65,23 13.65,39.23 0,16.23 -4.47,29.06 -13.65,39.22 -9.01,9.97 -20.92,14.83 -36.41,14.83 z"
     id="path500"
     style="fill:url(#linear-gradient-7)" />
  <path
     class="cls-10"
     d="m 1080.22,87.66 v 0 a 97.34,97.34 0 0 0 -30.36,-20.83 95.2,95.2 0 0 0 -74.78,0 94.13,94.13 0 0 0 -50.65,51.62 99.16,99.16 0 0 0 -7.4,38.11 v 6.36 l -63.26,-37.37 a 97.62,97.62 0 1 0 46.87,95.68 v -0.39 l -42.56,-25.21 0.31,1.37 a 55,55 0 0 1 1.43,12.23 55.79,55.79 0 1 1 -55.79,-55.79 c 9.95,0 18,2 24.68,6 L 917,211.66 v 94.87 h 45.47 v -150 a 66.07,66.07 0 0 1 3.62,-22.42 48.91,48.91 0 0 1 10.13,-16.92 45.34,45.34 0 0 1 15.65,-10.86 53.22,53.22 0 0 1 20.65,-3.87 52,52 0 0 1 20.92,4 45.42,45.42 0 0 1 15.5,11 50.75,50.75 0 0 1 10,17 68.93,68.93 0 0 1 0,44.09 49.37,49.37 0 0 1 -10.15,17 46.42,46.42 0 0 1 -16,11 54.46,54.46 0 0 1 -21.35,4 c -11.86,0 -22.23,-2.54 -31.7,-7.78 l -0.9,-0.5 v 45.57 l 0.4,0.14 a 96.72,96.72 0 0 0 33.29,5.86 94.39,94.39 0 0 0 68.26,-28.5 96.45,96.45 0 0 0 20.07,-31 100.14,100.14 0 0 0 7.2,-37.88 97.54,97.54 0 0 0 -27.84,-68.8 z"
     id="path502"
     style="fill:url(#linear-gradient-8)" />
</svg>
